<mxfile host="app.diagrams.net" modified="2020-04-03T03:15:26.074Z" agent="5.0 (Windows NT 6.1; Win64; x64) AppleWebKit/537.36 (KHTML, like Gecko) Chrome/80.0.3987.132 Safari/537.36" etag="_9bHfhmcml47Ar89lFP2" version="12.9.6" type="github">
  <diagram id="9UC1ZBUf9r_J20Ng0Syh" name="Page-1">
    <mxGraphModel dx="868" dy="401" grid="1" gridSize="10" guides="1" tooltips="1" connect="1" arrows="1" fold="1" page="1" pageScale="1" pageWidth="827" pageHeight="1169" math="0" shadow="0">
      <root>
        <mxCell id="0" />
        <mxCell id="1" parent="0" />
        <mxCell id="mh5o7TWo_xymcsIFWV8s-2" value="" style="rounded=0;whiteSpace=wrap;html=1;" parent="1" vertex="1">
          <mxGeometry x="80" y="50" width="680" height="390" as="geometry" />
        </mxCell>
        <mxCell id="mh5o7TWo_xymcsIFWV8s-3" value="" style="rounded=0;whiteSpace=wrap;html=1;" parent="1" vertex="1">
          <mxGeometry x="700" y="50" width="60" height="20" as="geometry" />
        </mxCell>
        <mxCell id="mh5o7TWo_xymcsIFWV8s-5" value="" style="whiteSpace=wrap;html=1;aspect=fixed;" parent="1" vertex="1">
          <mxGeometry x="720" y="50" width="20" height="20" as="geometry" />
        </mxCell>
        <mxCell id="mh5o7TWo_xymcsIFWV8s-6" value="" style="whiteSpace=wrap;html=1;aspect=fixed;" parent="1" vertex="1">
          <mxGeometry x="740" y="50" width="20" height="20" as="geometry" />
        </mxCell>
        <mxCell id="mh5o7TWo_xymcsIFWV8s-10" value="" style="whiteSpace=wrap;html=1;aspect=fixed;" parent="1" vertex="1">
          <mxGeometry x="725" y="55" width="10" height="10" as="geometry" />
        </mxCell>
        <mxCell id="mh5o7TWo_xymcsIFWV8s-14" value="X" style="text;html=1;strokeColor=none;fillColor=none;align=center;verticalAlign=middle;whiteSpace=wrap;rounded=0;" parent="1" vertex="1">
          <mxGeometry x="740" y="50" width="20" height="20" as="geometry" />
        </mxCell>
        <mxCell id="mh5o7TWo_xymcsIFWV8s-15" value="__" style="text;html=1;strokeColor=none;fillColor=none;align=center;verticalAlign=middle;whiteSpace=wrap;rounded=0;" parent="1" vertex="1">
          <mxGeometry x="700" y="50" width="20" height="10" as="geometry" />
        </mxCell>
        <mxCell id="mh5o7TWo_xymcsIFWV8s-16" value="" style="rounded=0;whiteSpace=wrap;html=1;" parent="1" vertex="1">
          <mxGeometry x="90" y="80" width="660" height="350" as="geometry" />
        </mxCell>
        <mxCell id="mh5o7TWo_xymcsIFWV8s-17" value="BMI (The Body Mass Index)" style="text;html=1;strokeColor=none;fillColor=none;align=center;verticalAlign=middle;whiteSpace=wrap;rounded=0;fontSize=23;" parent="1" vertex="1">
          <mxGeometry x="262.5" y="80" width="315" height="60" as="geometry" />
        </mxCell>
        <mxCell id="mh5o7TWo_xymcsIFWV8s-18" value="" style="rounded=0;whiteSpace=wrap;html=1;" parent="1" vertex="1">
          <mxGeometry x="110" y="140" width="320" height="280" as="geometry" />
        </mxCell>
        <mxCell id="mh5o7TWo_xymcsIFWV8s-19" value="&lt;font style=&quot;font-size: 16px&quot;&gt;Age&lt;/font&gt;" style="text;html=1;strokeColor=none;fillColor=none;align=center;verticalAlign=middle;whiteSpace=wrap;rounded=0;" parent="1" vertex="1">
          <mxGeometry x="120" y="200" width="40" height="20" as="geometry" />
        </mxCell>
        <mxCell id="mh5o7TWo_xymcsIFWV8s-20" value="" style="rounded=0;whiteSpace=wrap;html=1;" parent="1" vertex="1">
          <mxGeometry x="180" y="200" width="100" height="20" as="geometry" />
        </mxCell>
        <mxCell id="mh5o7TWo_xymcsIFWV8s-21" value="&lt;font style=&quot;font-size: 16px&quot;&gt;Gender&lt;/font&gt;" style="text;html=1;strokeColor=none;fillColor=none;align=center;verticalAlign=middle;whiteSpace=wrap;rounded=0;" parent="1" vertex="1">
          <mxGeometry x="130" y="235" width="40" height="20" as="geometry" />
        </mxCell>
        <mxCell id="mh5o7TWo_xymcsIFWV8s-22" value="" style="ellipse;whiteSpace=wrap;html=1;aspect=fixed;fillColor=#858585;" parent="1" vertex="1">
          <mxGeometry x="200" y="240" width="10" height="10" as="geometry" />
        </mxCell>
        <mxCell id="mh5o7TWo_xymcsIFWV8s-23" value="&lt;font style=&quot;font-size: 16px&quot;&gt;Female&lt;/font&gt;" style="text;html=1;strokeColor=none;fillColor=none;align=center;verticalAlign=middle;whiteSpace=wrap;rounded=0;" parent="1" vertex="1">
          <mxGeometry x="320" y="235" width="40" height="20" as="geometry" />
        </mxCell>
        <mxCell id="mh5o7TWo_xymcsIFWV8s-24" value="&lt;font style=&quot;font-size: 16px&quot;&gt;Male&lt;/font&gt;" style="text;html=1;strokeColor=none;fillColor=none;align=center;verticalAlign=middle;whiteSpace=wrap;rounded=0;" parent="1" vertex="1">
          <mxGeometry x="220" y="235" width="40" height="20" as="geometry" />
        </mxCell>
        <mxCell id="mh5o7TWo_xymcsIFWV8s-27" value="" style="ellipse;whiteSpace=wrap;html=1;aspect=fixed;" parent="1" vertex="1">
          <mxGeometry x="290" y="240" width="10" height="10" as="geometry" />
        </mxCell>
        <mxCell id="mh5o7TWo_xymcsIFWV8s-33" value="&lt;font style=&quot;font-size: 16px&quot;&gt;Height&lt;/font&gt;" style="text;html=1;strokeColor=none;fillColor=none;align=center;verticalAlign=middle;whiteSpace=wrap;rounded=0;" parent="1" vertex="1">
          <mxGeometry x="130" y="280" width="40" height="20" as="geometry" />
        </mxCell>
        <mxCell id="mh5o7TWo_xymcsIFWV8s-34" value="&lt;font style=&quot;font-size: 16px&quot;&gt;Weight&lt;/font&gt;" style="text;html=1;strokeColor=none;fillColor=none;align=center;verticalAlign=middle;whiteSpace=wrap;rounded=0;" parent="1" vertex="1">
          <mxGeometry x="130" y="320" width="40" height="20" as="geometry" />
        </mxCell>
        <mxCell id="mh5o7TWo_xymcsIFWV8s-36" value="" style="rounded=0;whiteSpace=wrap;html=1;" parent="1" vertex="1">
          <mxGeometry x="190" y="320" width="100" height="20" as="geometry" />
        </mxCell>
        <mxCell id="mh5o7TWo_xymcsIFWV8s-37" value="" style="rounded=0;whiteSpace=wrap;html=1;" parent="1" vertex="1">
          <mxGeometry x="190" y="280" width="70" height="20" as="geometry" />
        </mxCell>
        <mxCell id="mh5o7TWo_xymcsIFWV8s-38" value="" style="rounded=0;whiteSpace=wrap;html=1;fillColor=#FFFFFF;" parent="1" vertex="1">
          <mxGeometry x="110" y="140" width="150" height="30" as="geometry" />
        </mxCell>
        <mxCell id="mh5o7TWo_xymcsIFWV8s-39" value="" style="rounded=0;whiteSpace=wrap;html=1;fillColor=#9C9C9C;" parent="1" vertex="1">
          <mxGeometry x="280" y="140" width="150" height="30" as="geometry" />
        </mxCell>
        <mxCell id="mh5o7TWo_xymcsIFWV8s-40" value="&lt;font style=&quot;font-size: 18px&quot;&gt;US Units&lt;/font&gt;" style="text;html=1;strokeColor=none;fillColor=none;align=center;verticalAlign=middle;whiteSpace=wrap;rounded=0;" parent="1" vertex="1">
          <mxGeometry x="150" y="135" width="80" height="40" as="geometry" />
        </mxCell>
        <mxCell id="mh5o7TWo_xymcsIFWV8s-41" value="&lt;font style=&quot;font-size: 18px&quot;&gt;Metric&amp;nbsp;Units&lt;/font&gt;" style="text;html=1;strokeColor=none;fillColor=none;align=center;verticalAlign=middle;whiteSpace=wrap;rounded=0;" parent="1" vertex="1">
          <mxGeometry x="315" y="135" width="80" height="40" as="geometry" />
        </mxCell>
        <mxCell id="mh5o7TWo_xymcsIFWV8s-45" value="cm" style="text;html=1;strokeColor=none;fillColor=none;align=center;verticalAlign=middle;whiteSpace=wrap;rounded=0;" parent="1" vertex="1">
          <mxGeometry x="260" y="280" width="40" height="20" as="geometry" />
        </mxCell>
        <mxCell id="mh5o7TWo_xymcsIFWV8s-47" value="kg" style="text;html=1;strokeColor=none;fillColor=none;align=center;verticalAlign=middle;whiteSpace=wrap;rounded=0;" parent="1" vertex="1">
          <mxGeometry x="290" y="320" width="50" height="20" as="geometry" />
        </mxCell>
        <mxCell id="mh5o7TWo_xymcsIFWV8s-48" value="" style="rounded=0;whiteSpace=wrap;html=1;" parent="1" vertex="1">
          <mxGeometry x="210" y="370" width="110" height="40" as="geometry" />
        </mxCell>
        <mxCell id="mh5o7TWo_xymcsIFWV8s-49" value="Calculate" style="text;html=1;strokeColor=none;fillColor=none;align=center;verticalAlign=middle;whiteSpace=wrap;rounded=0;strokeWidth=2;fontSize=16;" parent="1" vertex="1">
          <mxGeometry x="230" y="370" width="70" height="40" as="geometry" />
        </mxCell>
      </root>
    </mxGraphModel>
  </diagram>
</mxfile>
